<?xml version="1.0" encoding="UTF-8"?>
<svg xmlns="http://www.w3.org/2000/svg" xmlns:xlink="http://www.w3.org/1999/xlink" width="1200pt" height="675pt" viewBox="0 0 1200 675" version="1.1">
<g id="surface1">
<rect x="0" y="0" width="1200" height="675" style="fill:rgb(100%,85.096741%,55.293274%);fill-opacity:1;stroke:none;"/>
<rect x="0" y="0" width="1200" height="675" style="fill:rgb(100%,100%,100%);fill-opacity:1;stroke:none;"/>
<path style=" stroke:none;fill-rule:nonzero;fill:rgb(0%,39.607239%,63.920593%);fill-opacity:1;" d="M 598.285156 476.714844 C 481.511719 476.714844 386.511719 381.710938 386.511719 264.945313 C 386.511719 148.167969 481.511719 53.167969 598.285156 53.167969 C 715.058594 53.167969 810.058594 148.171875 810.058594 264.945313 C 810.058594 381.710938 715.054688 476.714844 598.285156 476.714844 Z M 598.285156 476.714844 "/>
<path style=" stroke:none;fill-rule:nonzero;fill:rgb(100%,100%,100%);fill-opacity:1;" d="M 220.519531 495.992188 L 976.054688 495.992188 L 976.054688 646.054688 L 220.519531 646.054688 Z M 220.519531 495.992188 "/>
<path style=" stroke:none;fill-rule:nonzero;fill:rgb(20.391846%,21.568298%,25.881958%);fill-opacity:1;" d="M 238.644531 632.367188 L 264.957031 632.367188 L 264.957031 611.253906 L 264.039063 599.628906 C 268.933594 604.523438 274.746094 607.277344 281.171875 607.277344 C 297.386719 607.277344 312.988281 592.285156 312.988281 565.976563 C 312.988281 542.417969 301.363281 527.121094 283.3125 527.121094 C 275.664063 527.121094 268.167969 530.789063 262.507813 535.992188 L 261.894531 535.992188 L 260.058594 528.957031 L 238.644531 528.957031 Z M 274.746094 585.863281 C 271.378906 585.863281 268.015625 584.945313 264.957031 582.191406 L 264.957031 554.042969 C 268.320313 550.066406 271.378906 548.535156 275.359375 548.535156 C 282.394531 548.535156 286.066406 553.738281 286.066406 566.28125 C 286.066406 580.964844 280.863281 585.863281 274.746094 585.863281 Z M 337.160156 634.203125 C 356.128906 634.203125 364.390625 624.871094 372.34375 604.21875 L 398.042969 528.957031 L 372.957031 528.957031 L 365.308594 558.328125 C 363.472656 565.667969 361.941406 572.707031 360.410156 580.046875 L 359.800781 580.046875 C 357.964844 572.398438 356.433594 565.363281 354.292969 558.328125 L 345.113281 528.957031 L 318.800781 528.957031 L 347.867188 602.6875 L 346.949219 606.054688 C 345.421875 610.644531 342.054688 613.703125 335.019531 613.703125 C 333.488281 613.703125 331.5 613.089844 330.121094 612.785156 L 325.535156 632.671875 C 328.898438 633.589844 331.957031 634.203125 337.160156 634.203125 Z M 442.40625 607.277344 C 467.1875 607.277344 481.261719 592.285156 481.261719 575.460938 C 481.261719 561.691406 474.226563 553.125 461.832031 548.230469 L 449.75 543.488281 C 440.722656 539.96875 435.0625 538.285156 435.0625 533.542969 C 435.0625 529.109375 439.039063 526.8125 445.464844 526.8125 C 452.808594 526.8125 458.621094 529.261719 465.351563 534.003906 L 478.507813 517.480469 C 469.328125 508.457031 456.785156 504.171875 445.464844 504.171875 C 423.742188 504.171875 408.445313 518.09375 408.445313 535.074219 C 408.445313 549.453125 417.777344 558.480469 428.484375 562.761719 L 440.875 567.964844 C 449.289063 571.328125 454.339844 572.859375 454.339844 577.601563 C 454.339844 582.039063 450.972656 584.636719 443.019531 584.636719 C 435.675781 584.636719 426.800781 580.660156 419.765625 575 L 404.773438 593.050781 C 415.484375 602.6875 429.863281 607.277344 442.40625 607.277344 Z M 497.171875 605.441406 L 523.484375 605.441406 L 523.484375 572.09375 L 533.578125 572.09375 L 550.710938 605.441406 L 580.082031 605.441406 L 558.515625 566.894531 C 568.152344 561.691406 574.574219 552.359375 574.574219 538.132813 C 574.574219 513.351563 556.21875 506.007813 534.800781 506.007813 L 497.171875 506.007813 Z M 523.484375 551.289063 L 523.484375 526.8125 L 532.96875 526.8125 C 543.371094 526.8125 548.875 529.566406 548.875 538.132813 C 548.875 546.699219 543.371094 551.289063 532.96875 551.289063 Z M 634.234375 607.277344 C 662.078125 607.277344 674.925781 591.367188 674.925781 557.410156 L 674.925781 506.007813 L 649.535156 506.007813 L 649.535156 560.46875 C 649.535156 578.214844 644.636719 584.636719 634.234375 584.636719 C 623.832031 584.636719 619.246094 578.214844 619.246094 560.46875 L 619.246094 506.007813 L 592.933594 506.007813 L 592.933594 557.410156 C 592.933594 591.367188 606.394531 607.277344 634.234375 607.277344 Z M 696.34375 605.441406 L 722.65625 605.441406 L 722.65625 572.09375 L 732.75 572.09375 L 749.882813 605.441406 L 779.253906 605.441406 L 757.6875 566.894531 C 767.324219 561.691406 773.75 552.359375 773.75 538.132813 C 773.75 513.351563 755.390625 506.007813 733.976563 506.007813 L 696.34375 506.007813 Z M 722.65625 551.289063 L 722.65625 526.8125 L 732.140625 526.8125 C 742.542969 526.8125 748.050781 529.566406 748.050781 538.132813 C 748.050781 546.699219 742.542969 551.289063 732.140625 551.289063 Z M 838.609375 607.277344 C 852.683594 607.277344 865.226563 601.769531 872.265625 595.039063 L 872.265625 547.617188 L 834.328125 547.617188 L 834.328125 569.035156 L 849.011719 569.035156 L 849.011719 582.800781 C 847.175781 584.027344 844.117188 584.636719 841.363281 584.636719 C 823.617188 584.636719 815.359375 574.234375 815.359375 555.574219 C 815.359375 537.523438 825.453125 526.8125 838.914063 526.8125 C 846.871094 526.8125 851.765625 529.871094 856.660156 534.15625 L 870.429688 517.328125 C 863.390625 510.292969 852.683594 504.171875 837.996094 504.171875 C 811.378906 504.171875 788.433594 523.140625 788.433594 556.492188 C 788.433594 590.449219 810.769531 607.277344 838.609375 607.277344 Z M 923.050781 607.277344 C 947.832031 607.277344 961.90625 592.285156 961.90625 575.460938 C 961.90625 561.691406 954.871094 553.125 942.480469 548.230469 L 930.394531 543.488281 C 921.367188 539.96875 915.710938 538.285156 915.710938 533.542969 C 915.710938 529.109375 919.6875 526.8125 926.109375 526.8125 C 933.453125 526.8125 939.265625 529.261719 945.996094 534.003906 L 959.152344 517.480469 C 949.976563 508.457031 937.429688 504.171875 926.109375 504.171875 C 904.390625 504.171875 889.089844 518.09375 889.089844 535.074219 C 889.089844 549.453125 898.421875 558.480469 909.132813 562.761719 L 921.523438 567.964844 C 929.9375 571.328125 934.984375 572.859375 934.984375 577.601563 C 934.984375 582.039063 931.617188 584.636719 923.664063 584.636719 C 916.320313 584.636719 907.449219 580.660156 900.410156 575 L 885.421875 593.050781 C 896.128906 602.6875 910.507813 607.277344 923.050781 607.277344 Z M 923.050781 607.277344 "/>
<path style=" stroke:none;fill-rule:nonzero;fill:rgb(100%,100%,100%);fill-opacity:1;" d="M 711.355469 335.347656 L 698.402344 335.347656 L 657.566406 293.105469 L 662.074219 293.105469 C 669.675781 293.105469 675.589844 286.910156 675.589844 279.589844 L 675.589844 250.300781 C 675.589844 242.695313 669.394531 236.78125 662.074219 236.78125 L 649.117188 236.78125 L 608.285156 194.539063 L 612.789063 194.539063 C 620.394531 194.539063 626.308594 188.34375 626.308594 181.023438 L 626.308594 151.734375 C 626.308594 144.414063 620.113281 138.21875 612.789063 138.21875 L 583.503906 138.21875 C 576.179688 138.21875 569.984375 144.414063 569.984375 151.734375 L 569.984375 181.023438 C 569.984375 188.625 576.179688 194.539063 583.503906 194.539063 L 588.007813 194.539063 L 547.171875 236.78125 L 534.21875 236.78125 C 526.617188 236.78125 520.703125 242.980469 520.703125 250.300781 L 520.703125 279.589844 C 520.703125 287.191406 526.898438 293.105469 534.21875 293.105469 L 538.726563 293.105469 L 497.890625 335.347656 L 484.9375 335.347656 C 477.613281 335.347656 471.417969 341.542969 471.417969 348.867188 L 471.417969 378.15625 C 471.417969 385.476563 477.613281 391.671875 484.9375 391.671875 L 514.222656 391.671875 C 521.828125 391.671875 527.742188 385.476563 527.742188 378.15625 L 527.742188 348.867188 C 527.742188 341.261719 521.546875 335.347656 514.222656 335.347656 L 509.71875 335.347656 L 548.863281 295.078125 L 588.007813 335.347656 L 583.503906 335.347656 C 575.898438 335.347656 569.984375 341.542969 569.984375 348.867188 L 569.984375 378.15625 C 569.984375 385.757813 576.179688 391.671875 583.503906 391.671875 L 612.789063 391.671875 C 620.394531 391.671875 626.308594 385.476563 626.308594 378.15625 L 626.308594 348.867188 C 626.308594 341.261719 620.113281 335.347656 612.789063 335.347656 L 599.835938 335.347656 L 559 293.105469 L 563.507813 293.105469 C 571.109375 293.105469 577.023438 286.910156 577.023438 279.589844 L 577.023438 250.300781 C 577.023438 242.695313 570.828125 236.78125 563.507813 236.78125 L 559 236.78125 L 598.144531 196.230469 L 637.289063 236.78125 L 632.785156 236.78125 C 625.179688 236.78125 619.265625 242.980469 619.265625 250.300781 L 619.265625 279.589844 C 619.265625 287.191406 625.460938 293.105469 632.785156 293.105469 L 645.738281 293.105469 L 686.855469 335.347656 L 682.347656 335.347656 C 674.746094 335.347656 668.832031 341.542969 668.832031 348.867188 L 668.832031 378.15625 C 668.832031 385.757813 675.027344 391.671875 682.347656 391.671875 L 711.636719 391.671875 C 719.242188 391.671875 725.15625 385.476563 725.15625 378.15625 L 725.15625 348.867188 C 724.875 341.542969 718.679688 335.347656 711.355469 335.347656 Z M 519.292969 348.867188 L 519.292969 378.15625 C 519.292969 380.96875 517.039063 383.222656 514.222656 383.222656 L 484.9375 383.222656 C 482.121094 383.222656 479.867188 380.96875 479.867188 378.15625 L 479.867188 348.867188 C 479.867188 346.050781 482.121094 343.796875 484.9375 343.796875 L 514.222656 343.796875 C 517.039063 343.796875 519.292969 346.050781 519.292969 348.867188 Z M 617.859375 348.867188 L 617.859375 378.15625 C 617.859375 380.96875 615.605469 383.222656 612.789063 383.222656 L 583.503906 383.222656 C 580.6875 383.222656 578.433594 380.96875 578.433594 378.15625 L 578.433594 348.867188 C 578.433594 346.050781 580.6875 343.796875 583.503906 343.796875 L 612.789063 343.796875 C 615.605469 343.796875 617.859375 346.050781 617.859375 348.867188 Z M 568.578125 250.300781 L 568.578125 279.589844 C 568.578125 282.40625 566.324219 284.65625 563.507813 284.65625 L 534.21875 284.65625 C 531.402344 284.65625 529.148438 282.40625 529.148438 279.589844 L 529.148438 250.300781 C 529.148438 247.484375 531.402344 245.230469 534.21875 245.230469 L 563.507813 245.230469 C 566.324219 245.230469 568.578125 247.484375 568.578125 250.300781 Z M 578.433594 181.023438 L 578.433594 151.734375 C 578.433594 148.917969 580.6875 146.664063 583.503906 146.664063 L 612.789063 146.664063 C 615.605469 146.664063 617.859375 148.917969 617.859375 151.734375 L 617.859375 181.023438 C 617.859375 183.839844 615.605469 186.09375 612.789063 186.09375 L 583.503906 186.09375 C 580.6875 186.09375 578.433594 183.839844 578.433594 181.023438 Z M 627.714844 279.589844 L 627.714844 250.300781 C 627.714844 247.484375 629.96875 245.230469 632.785156 245.230469 L 662.074219 245.230469 C 664.890625 245.230469 667.140625 247.484375 667.140625 250.300781 L 667.140625 279.589844 C 667.140625 282.40625 664.890625 284.65625 662.074219 284.65625 L 632.785156 284.65625 C 629.96875 284.65625 627.714844 282.40625 627.714844 279.589844 Z M 716.425781 378.15625 C 716.425781 380.96875 714.171875 383.222656 711.355469 383.222656 L 682.066406 383.222656 C 679.25 383.222656 677 380.96875 677 378.15625 L 677 348.867188 C 677 346.050781 679.25 343.796875 682.066406 343.796875 L 711.355469 343.796875 C 714.171875 343.796875 716.425781 346.050781 716.425781 348.867188 Z M 716.425781 378.15625 "/>
</g>
</svg>
